<?xml version="1.0" encoding="UTF-8"?>
<svg xmlns="http://www.w3.org/2000/svg" viewBox="0 0 512 512" width="512" height="512">
  <defs>
    <clipPath id="q-tl"><rect x="0" y="0" width="256" height="256"/></clipPath>
    <clipPath id="q-tr"><rect x="256" y="0" width="256" height="256"/></clipPath>
    <clipPath id="q-bl"><rect x="0" y="256" width="256" height="256"/></clipPath>
    <clipPath id="q-br"><rect x="256" y="256" width="256" height="256"/></clipPath>
  </defs>

  <rect x="76" y="76" width="360" height="360" rx="72" ry="72" fill="#4285F4" clip-path="url(#q-tl)"/>
  <rect x="76" y="76" width="360" height="360" rx="72" ry="72" fill="#EA4335" clip-path="url(#q-tr)"/>
  <rect x="76" y="76" width="360" height="360" rx="72" ry="72" fill="#34A853" clip-path="url(#q-bl)"/>
  <rect x="76" y="76" width="360" height="360" rx="72" ry="72" fill="#FBBC05" clip-path="url(#q-br)"/>

  <rect x="138" y="138" width="236" height="236" rx="26" ry="26" fill="white"/>
  <path d="M 182.91 287.31 L 218.23 283.90 Q 221.45 301.68 231.18 310.03 Q 240.91 318.35 257.47 318.35 Q 275.01 318.35 283.88 310.94 Q 292.79 303.52 292.79 293.59 Q 292.79 287.20 289.06 282.72 Q 285.33 278.25 275.99 274.95 Q 269.64 272.72 246.96 267.11 Q 217.76 259.85 205.99 249.33 Q 189.43 234.46 189.43 213.15 Q 189.43 199.42 197.20 187.45 Q 205.01 175.48 219.64 169.24 Q 234.32 163.00 255.04 163.00 Q 288.86 163.00 305.97 177.83 Q 323.08 192.67 323.94 217.43 L 287.65 219.04 Q 285.33 205.18 277.64 199.10 Q 269.99 193.02 254.65 193.02 Q 238.83 193.02 229.89 199.53 Q 224.12 203.69 224.12 210.68 Q 224.12 217.07 229.53 221.59 Q 236.40 227.35 262.89 233.63 Q 289.37 239.87 302.05 246.58 Q 314.76 253.25 321.90 264.83 Q 329.09 276.41 329.09 293.47 Q 329.09 308.90 320.49 322.39 Q 311.94 335.89 296.24 342.45 Q 280.54 349.00 257.12 349.00 Q 223.02 349.00 204.73 333.26 Q 186.49 317.49 182.91 287.31 Z" fill="#3A3A3A"/>
</svg>
